<svg xmlns="http://www.w3.org/2000/svg" viewBox="0 0 7417 5000"><svg viewBox="-0.23294661979148623 0 125.23294661979149 79.04777140278348" xmlns="http://www.w3.org/2000/svg" width="2500" height="1575" x="58.833332" y="462.5"><g fill="#621ee5"><path d="M6.02 40.25c-.32-.34-.71-.61-1.14-.8s-.89-.28-1.36-.28c-.47-.01-.93.09-1.36.27-.43.19-.82.46-1.14.8-.33.33-.59.72-.76 1.15-.17.44-.26.9-.26 1.36-.01.47.08.93.26 1.36s.44.82.77 1.15a3.339 3.339 0 0 0 2.5 1.05 3.456 3.456 0 0 0 2.5-1.05c.34-.32.6-.71.78-1.14s.27-.89.27-1.36-.09-.93-.27-1.36c-.19-.44-.45-.83-.79-1.15zM47.87 32.13c-.05 2.24.06 4.49.32 6.72h-.12c-.28-.55-.9-1.57-1.85-3.06L23.42 0H16.5v45.69h5.32V12.66c.06-2.09-.03-4.18-.25-6.27h.2c.38 1 .87 1.96 1.45 2.86l23.42 36.44h6.55V0h-5.32zM89.26 40.67h-18.8V24.84h16.45v-4.82H70.46V4.84h17.65V0h-23.1v45.69h24.22zM93.33 0v4.84h13.1v40.85h5.32V4.84H125V0zM41.19 57.05a10.04 10.04 0 0 0-3.52 2.37c-1.02 1.09-1.82 2.37-2.34 3.78s-.75 2.9-.69 4.39c-.1 2.76.86 5.46 2.7 7.52.92.97 2.04 1.72 3.28 2.22s2.57.72 3.9.66c2 .07 3.99-.35 5.8-1.23l.02-2.33c-1.66.97-3.55 1.45-5.47 1.4-1.03.04-2.06-.14-3.01-.53s-1.81-.99-2.51-1.75a8.72 8.72 0 0 1-2.1-6.14c-.12-2.37.69-4.69 2.25-6.47.74-.82 1.65-1.46 2.66-1.9a7.68 7.68 0 0 1 3.21-.61c1.75-.03 3.47.4 5 1.25v-2.51a12.23 12.23 0 0 0-5-.88c-1.43-.02-2.86.23-4.18.76zM66.12 64.21a6.719 6.719 0 0 0-5.22-2.08c-1.03-.05-2.05.12-3.01.49s-1.83.93-2.57 1.64c-.72.8-1.27 1.73-1.63 2.75s-.51 2.09-.44 3.17c-.1 2.05.61 4.06 1.97 5.59.68.73 1.5 1.31 2.42 1.7.92.38 1.91.57 2.9.53 1.01.03 2.02-.16 2.96-.55s1.78-.98 2.47-1.73a8.06 8.06 0 0 0 2.02-5.76c.12-2.1-.55-4.15-1.87-5.75zm-1.83 10.27a4.394 4.394 0 0 1-3.57 1.51c-.69.03-1.37-.1-2-.36-.63-.27-1.19-.67-1.65-1.19a6.126 6.126 0 0 1-1.35-4.21c-.09-1.57.39-3.12 1.35-4.36.45-.52 1.01-.93 1.64-1.21.63-.27 1.32-.4 2-.37.68-.04 1.35.09 1.97.36s1.17.68 1.61 1.2a6.668 6.668 0 0 1 1.25 4.34c.1 1.52-.34 3.05-1.25 4.29zM75.88 63.23c-.75.67-1.3 1.54-1.57 2.51V62.6h-2.5v15.04h2.5v-7.67c-.08-1.39.28-2.78 1.02-3.96.27-.43.63-.79 1.07-1.04s.93-.4 1.43-.41c.64-.05 1.28.12 1.82.48v-2.48c-.46-.15-.94-.22-1.42-.2-.86-.01-1.69.3-2.35.87zM94.28 69.44c.12-1.91-.45-3.79-1.6-5.31-.57-.64-1.27-1.15-2.06-1.48s-1.64-.48-2.49-.43c-.94-.03-1.88.16-2.75.54-.86.38-1.63.95-2.25 1.67a8.217 8.217 0 0 0-1.97 5.71c-.13 2.08.52 4.14 1.82 5.76.63.69 1.41 1.23 2.27 1.59s1.8.51 2.73.47c1.85.09 3.68-.41 5.22-1.43v-2.26a7.506 7.506 0 0 1-4.65 1.68c-.65.04-1.31-.06-1.92-.3s-1.17-.59-1.63-1.06a5.58 5.58 0 0 1-1.27-3.86H94.3zm-10.57-.7c.13-1.19.65-2.31 1.47-3.18a3.86 3.86 0 0 1 2.88-1.23c.52-.03 1.03.06 1.51.26s.9.5 1.24.89c.7.93 1.05 2.07 1 3.23z" /></g></svg><svg width="2370" height="2500" viewBox="0 0 256 270" xmlns="http://www.w3.org/2000/svg" preserveAspectRatio="xMinYMin meet" x="2676.5" y="0"><path d="M127.606.341L.849 44.95 20.88 211.022l106.86 58.732 107.412-59.528L255.175 44.16 127.606.341z" fill="#B3B3B3" /><path d="M242.532 53.758L127.31 14.466v241.256l96.561-53.441 18.66-148.523z" fill="#A6120D" /><path d="M15.073 54.466l17.165 148.525 95.07 52.731V14.462L15.074 54.465z" fill="#DD1B16" /><path d="M159.027 142.898L127.31 157.73H93.881l-15.714 39.305-29.228.54L127.31 23.227l31.717 119.672zm-3.066-7.467l-28.44-56.303-23.329 55.334h23.117l28.652.97z" fill="#F2F2F2" /><path d="M127.309 23.226l.21 55.902 26.47 55.377h-26.62l-.06 23.189 36.81.035 17.204 39.852 27.967.518-81.981-174.873z" fill="#B3B3B3" /></svg><svg height="2500" viewBox="175.7 78 490.6 436.9" width="2194" xmlns="http://www.w3.org/2000/svg" x="5164.167" y="0"><g fill="#61dafb"><path d="m666.3 296.5c0-32.5-40.7-63.3-103.1-82.4 14.4-63.6 8-114.2-20.2-130.4-6.5-3.8-14.1-5.6-22.4-5.6v22.3c4.6 0 8.3.9 11.4 2.6 13.6 7.8 19.5 37.5 14.9 75.7-1.1 9.4-2.9 19.3-5.1 29.4-19.6-4.8-41-8.5-63.5-10.9-13.5-18.5-27.5-35.3-41.6-50 32.6-30.3 63.2-46.9 84-46.9v-22.3c-27.5 0-63.5 19.6-99.9 53.6-36.4-33.8-72.4-53.2-99.9-53.2v22.3c20.7 0 51.4 16.5 84 46.6-14 14.7-28 31.4-41.3 49.9-22.6 2.4-44 6.1-63.6 11-2.3-10-4-19.7-5.2-29-4.7-38.2 1.1-67.9 14.6-75.8 3-1.8 6.9-2.6 11.5-2.6v-22.3c-8.4 0-16 1.8-22.6 5.6-28.1 16.2-34.4 66.7-19.9 130.1-62.2 19.2-102.7 49.9-102.7 82.3 0 32.5 40.7 63.3 103.1 82.4-14.4 63.6-8 114.2 20.2 130.4 6.5 3.8 14.1 5.6 22.5 5.6 27.5 0 63.5-19.6 99.9-53.6 36.4 33.8 72.4 53.2 99.9 53.2 8.4 0 16-1.8 22.6-5.6 28.1-16.2 34.4-66.7 19.9-130.1 62-19.1 102.5-49.9 102.5-82.3zm-130.2-66.7c-3.7 12.9-8.3 26.2-13.5 39.5-4.1-8-8.4-16-13.1-24-4.6-8-9.5-15.8-14.4-23.4 14.2 2.1 27.9 4.7 41 7.9zm-45.8 106.5c-7.8 13.5-15.8 26.3-24.1 38.2-14.9 1.3-30 2-45.2 2-15.1 0-30.2-.7-45-1.9-8.3-11.9-16.4-24.6-24.2-38-7.6-13.1-14.5-26.4-20.8-39.8 6.2-13.4 13.2-26.8 20.7-39.9 7.8-13.5 15.8-26.3 24.1-38.2 14.9-1.3 30-2 45.2-2 15.1 0 30.2.7 45 1.9 8.3 11.9 16.4 24.6 24.2 38 7.6 13.1 14.5 26.4 20.8 39.8-6.3 13.4-13.2 26.8-20.7 39.9zm32.3-13c5.4 13.4 10 26.8 13.8 39.8-13.1 3.2-26.9 5.9-41.2 8 4.9-7.7 9.8-15.6 14.4-23.7 4.6-8 8.9-16.1 13-24.1zm-101.4 106.7c-9.3-9.6-18.6-20.3-27.8-32 9 .4 18.2.7 27.5.7 9.4 0 18.7-.2 27.8-.7-9 11.7-18.3 22.4-27.5 32zm-74.4-58.9c-14.2-2.1-27.9-4.7-41-7.9 3.7-12.9 8.3-26.2 13.5-39.5 4.1 8 8.4 16 13.1 24s9.5 15.8 14.4 23.4zm73.9-208.1c9.3 9.6 18.6 20.3 27.8 32-9-.4-18.2-.7-27.5-.7-9.4 0-18.7.2-27.8.7 9-11.7 18.3-22.4 27.5-32zm-74 58.9c-4.9 7.7-9.8 15.6-14.4 23.7-4.6 8-8.9 16-13 24-5.4-13.4-10-26.8-13.8-39.8 13.1-3.1 26.9-5.8 41.2-7.9zm-90.5 125.2c-35.4-15.1-58.3-34.9-58.3-50.6s22.9-35.6 58.3-50.6c8.6-3.7 18-7 27.7-10.1 5.7 19.6 13.2 40 22.5 60.9-9.2 20.8-16.6 41.1-22.2 60.6-9.9-3.1-19.3-6.5-28-10.2zm53.8 142.9c-13.6-7.8-19.5-37.5-14.9-75.7 1.1-9.4 2.9-19.3 5.1-29.4 19.6 4.8 41 8.5 63.5 10.9 13.5 18.5 27.5 35.3 41.6 50-32.6 30.3-63.2 46.9-84 46.9-4.5-.1-8.3-1-11.3-2.7zm237.2-76.2c4.7 38.2-1.1 67.9-14.6 75.8-3 1.8-6.9 2.6-11.5 2.6-20.7 0-51.4-16.5-84-46.6 14-14.7 28-31.4 41.3-49.9 22.6-2.4 44-6.1 63.6-11 2.3 10.1 4.1 19.8 5.2 29.1zm38.5-66.7c-8.6 3.7-18 7-27.7 10.1-5.7-19.6-13.2-40-22.5-60.9 9.2-20.8 16.6-41.1 22.2-60.6 9.9 3.1 19.3 6.5 28.1 10.2 35.4 15.1 58.3 34.9 58.3 50.6-.1 15.7-23 35.6-58.4 50.6z" /><circle cx="420.9" cy="296.5" r="45.7" /></g></svg><svg id="Layer_1" xmlns="http://www.w3.org/2000/svg" viewBox="0 0 767.8 768" width="2499" height="2500" x="0" y="2500"><style>.st0{fill:#77bc1f}</style><path class="st0" d="M698.3 40c-10.8 25.8-24.5 50.3-41 72.8C585.1 40.6 487.1 0 385 0 173.8 0 0 174 0 385.5 0 491 43.2 592 119.6 664.8l14.2 12.6c69.4 58.5 157.3 90.7 248 90.7 200.8 0 369.6-157.4 383.9-358 10.5-98.2-18.3-222.4-67.4-370.1zm-524 627c-6.2 7.7-15.7 12.2-25.6 12.2-18.1 0-32.9-14.9-32.9-33s14.9-33 32.9-33c7.5 0 14.9 2.6 20.7 7.4 14.1 11.4 16.3 32.3 4.9 46.4zm522.4-115.4c-95 126.7-297.9 84-428 90.1 0 0-23.1 1.4-46.3 5.2 0 0 8.7-3.7 20-8 91.3-31.8 134.5-38 190-66.5 104.5-53.2 207.8-169.6 229.3-290.7C621.9 398.2 501.3 498.3 391.4 539c-75.3 27.8-211.3 54.8-211.3 54.8l-5.5-2.9C82 545.8 79.2 345.1 247.5 280.3c73.7-28.4 144.2-12.8 223.8-31.8 85-20.2 183.3-84 223.3-167.2 44.8 133.1 98.7 341.5 2.1 470.3z" /></svg><svg height="2500" viewBox="0 -.11376601 49.74245785 51.31690859" width="2418" xmlns="http://www.w3.org/2000/svg" x="2499" y="2500"><path d="m49.626 11.564a.809.809 0 0 1 .028.209v10.972a.8.8 0 0 1 -.402.694l-9.209 5.302v10.509c0 .286-.152.55-.4.694l-19.223 11.066c-.044.025-.092.041-.14.058-.018.006-.035.017-.054.022a.805.805 0 0 1 -.41 0c-.022-.006-.042-.018-.063-.026-.044-.016-.09-.03-.132-.054l-19.219-11.066a.801.801 0 0 1 -.402-.694v-32.916c0-.072.01-.142.028-.21.006-.023.02-.044.028-.067.015-.042.029-.085.051-.124.015-.026.037-.047.055-.071.023-.032.044-.065.071-.093.023-.023.053-.04.079-.06.029-.024.055-.05.088-.069h.001l9.61-5.533a.802.802 0 0 1 .8 0l9.61 5.533h.002c.032.02.059.045.088.068.026.02.055.038.078.06.028.029.048.062.072.094.017.024.04.045.054.071.023.04.036.082.052.124.008.023.022.044.028.068a.809.809 0 0 1 .028.209v20.559l8.008-4.611v-10.51c0-.07.01-.141.028-.208.007-.024.02-.045.028-.068.016-.042.03-.085.052-.124.015-.026.037-.047.054-.071.024-.032.044-.065.072-.093.023-.023.052-.04.078-.06.03-.024.056-.05.088-.069h.001l9.611-5.533a.801.801 0 0 1 .8 0l9.61 5.533c.034.02.06.045.09.068.025.02.054.038.077.06.028.029.048.062.072.094.018.024.04.045.054.071.023.039.036.082.052.124.009.023.022.044.028.068zm-1.574 10.718v-9.124l-3.363 1.936-4.646 2.675v9.124l8.01-4.611zm-9.61 16.505v-9.13l-4.57 2.61-13.05 7.448v9.216zm-36.84-31.068v31.068l17.618 10.143v-9.214l-9.204-5.209-.003-.002-.004-.002c-.031-.018-.057-.044-.086-.066-.025-.02-.054-.036-.076-.058l-.002-.003c-.026-.025-.044-.056-.066-.084-.02-.027-.044-.05-.06-.078l-.001-.003c-.018-.03-.029-.066-.042-.1-.013-.03-.03-.058-.038-.09v-.001c-.01-.038-.012-.078-.016-.117-.004-.03-.012-.06-.012-.09v-21.483l-4.645-2.676-3.363-1.934zm8.81-5.994-8.007 4.609 8.005 4.609 8.006-4.61-8.006-4.608zm4.164 28.764 4.645-2.674v-20.096l-3.363 1.936-4.646 2.675v20.096zm24.667-23.325-8.006 4.609 8.006 4.609 8.005-4.61zm-.801 10.605-4.646-2.675-3.363-1.936v9.124l4.645 2.674 3.364 1.937zm-18.422 20.561 11.743-6.704 5.87-3.35-8-4.606-9.211 5.303-8.395 4.833z" fill="#ff2d20" /></svg><svg width="2500" height="708" viewBox="0 0 512 145" xmlns="http://www.w3.org/2000/svg" preserveAspectRatio="xMinYMin meet" x="4917" y="3396"><g fill="#83CD29"><path d="M471.05 51.611c-1.244 0-2.454.257-3.525.863l-33.888 19.57c-2.193 1.264-3.526 3.65-3.526 6.189v39.069c0 2.537 1.333 4.92 3.526 6.187l8.85 5.109c4.3 2.119 5.885 2.086 7.842 2.086 6.366 0 10.001-3.863 10.001-10.576V81.542c0-.545-.472-.935-1.007-.935h-4.245c-.544 0-1.007.39-1.007.935v38.566c0 2.975-3.1 5.968-8.13 3.453l-9.21-5.396c-.326-.177-.576-.49-.576-.863v-39.07c0-.37.247-.747.576-.935L470.547 57.8a.998.998 0 0 1 1.007 0l33.817 19.498c.322.194.576.553.576.936v39.069c0 .373-.188.755-.504.935l-33.889 19.498c-.29.173-.69.173-1.007 0l-8.706-5.18a.905.905 0 0 0-.863 0c-2.403 1.362-2.855 1.52-5.109 2.302-.555.194-1.398.495.288 1.44l11.368 6.69a6.995 6.995 0 0 0 3.526.936 6.949 6.949 0 0 0 3.525-.935l33.889-19.499c2.193-1.275 3.525-3.65 3.525-6.187v-39.07c0-2.538-1.332-4.92-3.525-6.187l-33.889-19.57c-1.062-.607-2.28-.864-3.525-.864z" /><path d="M480.116 79.528c-9.65 0-15.397 4.107-15.397 10.937 0 7.408 5.704 9.444 14.966 10.36 11.08 1.085 11.943 2.712 11.943 4.893 0 3.783-3.016 5.396-10.144 5.396-8.957 0-10.925-2.236-11.584-6.691-.078-.478-.447-.864-.936-.864h-4.389c-.54 0-1.007.466-1.007 1.008 0 5.703 3.102 12.447 17.916 12.447 10.723 0 16.908-4.209 16.908-11.584 0-7.31-4.996-9.273-15.398-10.648-10.51-1.391-11.512-2.072-11.512-4.533 0-2.032.85-4.75 8.634-4.75 6.954 0 9.524 1.5 10.577 6.189.092.44.48.791.935.791h4.39c.27 0 .532-.166.719-.36.184-.207.314-.44.288-.719-.68-8.074-6.064-11.872-16.909-11.872z" /></g><path d="M271.821.383a2.181 2.181 0 0 0-1.08.287 2.18 2.18 0 0 0-1.079 1.871v55.042c0 .54-.251 1.024-.719 1.295a1.501 1.501 0 0 1-1.511 0l-8.994-5.18a4.31 4.31 0 0 0-4.317 0l-35.903 20.721c-1.342.775-2.158 2.264-2.158 3.814v41.443c0 1.548.817 2.966 2.158 3.741l35.903 20.722a4.3 4.3 0 0 0 4.317 0l35.903-20.722a4.308 4.308 0 0 0 2.159-3.741V16.356a4.386 4.386 0 0 0-2.23-3.814L272.9.598c-.335-.187-.707-.22-1.079-.215zM40.861 52.115c-.684.027-1.328.147-1.942.503L3.015 73.34a4.3 4.3 0 0 0-2.158 3.741L.929 132.7c0 .773.399 1.492 1.079 1.87a2.096 2.096 0 0 0 2.159 0l21.297-12.231c1.349-.802 2.23-2.196 2.23-3.742V92.623c0-1.55.815-2.972 2.159-3.742l9.065-5.252a4.251 4.251 0 0 1 2.159-.576c.74 0 1.5.185 2.158.576l9.066 5.252a4.296 4.296 0 0 1 2.159 3.742v25.973c0 1.546.89 2.95 2.23 3.742l21.297 12.232a2.096 2.096 0 0 0 2.159 0 2.164 2.164 0 0 0 1.08-1.871l.07-55.618a4.28 4.28 0 0 0-2.158-3.741L43.235 52.618c-.607-.356-1.253-.475-1.942-.503h-.432zm322.624.503c-.75 0-1.485.19-2.158.576l-35.903 20.722a4.306 4.306 0 0 0-2.159 3.741V119.1c0 1.559.878 2.971 2.23 3.742l35.616 20.29c1.315.75 2.921.807 4.245.07l21.585-12.015c.685-.38 1.148-1.09 1.151-1.87a2.126 2.126 0 0 0-1.079-1.871l-36.119-20.722c-.676-.386-1.151-1.167-1.151-1.943v-12.95c0-.775.48-1.485 1.151-1.871l11.224-6.476a2.155 2.155 0 0 1 2.159 0L375.5 89.96a2.152 2.152 0 0 1 1.08 1.87v10.217a2.15 2.15 0 0 0 1.079 1.87c.673.389 1.487.39 2.158 0L401.331 91.4a4.325 4.325 0 0 0 2.159-3.742v-10c0-1.545-.82-2.966-2.159-3.742l-35.687-20.722a4.279 4.279 0 0 0-2.159-.575zm-107.35 30.939c.188 0 .408.046.576.143l12.304 7.123c.334.193.576.55.576.935v14.246c0 .387-.24.743-.576.936l-12.304 7.123a1.088 1.088 0 0 1-1.079 0l-12.303-7.123c-.335-.194-.576-.549-.576-.936V91.758c0-.386.242-.74.576-.935l12.303-7.122a.948.948 0 0 1 .504-.143v-.001z" fill="#404137" /><path d="M148.714 52.402c-.748 0-1.488.19-2.158.576l-35.903 20.65c-1.343.773-2.159 2.265-2.159 3.813v41.443c0 1.55.817 2.966 2.159 3.742l35.903 20.721a4.297 4.297 0 0 0 4.317 0l35.903-20.721a4.308 4.308 0 0 0 2.158-3.742V77.441c0-1.55-.816-3.04-2.158-3.813l-35.903-20.65a4.297 4.297 0 0 0-2.159-.576zM363.413 89.385c-.143 0-.302 0-.431.072l-6.907 4.029a.84.84 0 0 0-.432.72v7.914c0 .298.172.571.432.72l6.907 3.957c.259.15.535.15.791 0l6.907-3.958a.846.846 0 0 0 .432-.719v-7.915a.846.846 0 0 0-.432-.719l-6.907-4.03c-.128-.075-.216-.07-.36-.07z" fill="#83CD29" /></svg></svg>
